# xmcd CD database file
#
# Track frame offsets:
#	150
#	25610
#	58347
#	92147
#	116622
#	144355
#	167777
#	199445
#	227807
#	260397
#
# Disc length: 3758 seconds
#
# Revision: 0
# Processed by: cddbd v1.5.1PL0 Copyright (c) Steve Scherf et al.
# Submitted via: CDex 1.51
#
DISCID=8b0eac0a
DTITLE=Mark Murphy - Links
DYEAR=2001
DGENRE=Jazz
TTITLE0=In the Land of Oo-Bla-Dee
TTITLE1=The Lady's in Love With You
TTITLE2=Don't Ask Why
TTITLE3=Wheelers and Dealers
TTITLE4=Taming of a Rose
TTITLE5=Breathing
TTITLE6=A Flower is a Lovesome Thing
TTITLE7=Ode to the Road
TTITLE8=Medley: Daydreams - In a Sentimental Mood
TTITLE9=I'm Thru With Love
EXTD=YEAR: 2001
EXTT0=
EXTT1=
EXTT2=
EXTT3=
EXTT4=
EXTT5=
EXTT6=
EXTT7=
EXTT8=
EXTT9=
PLAYORDER=
